<svg width="70" height="70" viewBox="0 0 70 70" fill="none" xmlns="http://www.w3.org/2000/svg">
<g clip-path="url(#clip0_17_51)">
<circle cx="35" cy="35" r="35" fill="url(#paint0_linear_17_51)"/>
<circle cx="56" cy="22" r="4" fill="url(#paint1_linear_17_51)" stroke="black" stroke-width="2"/>
<circle cx="46" cy="35" r="4" fill="url(#paint2_linear_17_51)" stroke="black" stroke-width="2"/>
<circle cx="56" cy="48" r="4" fill="url(#paint3_linear_17_51)" stroke="black" stroke-width="2"/>
<line x1="47.2407" y1="31.3492" x2="53.2407" y2="24.3492" stroke="black" stroke-width="2"/>
<line y1="-1" x2="9.21954" y2="-1" transform="matrix(-0.650791 -0.759257 -0.759257 0.650791 52 46)" stroke="black" stroke-width="2"/>
<circle cx="14" cy="22" r="4" fill="url(#paint4_linear_17_51)" stroke="black" stroke-width="2"/>
<circle cx="34" cy="22" r="4" fill="url(#paint5_linear_17_51)" stroke="black" stroke-width="2"/>
<circle cx="24" cy="35" r="4" fill="url(#paint6_linear_17_51)" stroke="black" stroke-width="2"/>
<circle cx="24" cy="48" r="4" fill="url(#paint7_linear_17_51)" stroke="black" stroke-width="2"/>
<line y1="-1" x2="9.21954" y2="-1" transform="matrix(-0.650791 -0.759257 -0.759257 0.650791 21 33)" stroke="black" stroke-width="2"/>
<line x1="26.2407" y1="32.3492" x2="32.2407" y2="25.3492" stroke="black" stroke-width="2"/>
<path d="M24 44L24 39" stroke="black" stroke-width="2" stroke-linecap="round"/>
</g>
<defs>
<linearGradient id="paint0_linear_17_51" x1="35" y1="0" x2="35" y2="70" gradientUnits="userSpaceOnUse">
<stop stop-color="#FFF500"/>
<stop offset="1" stop-color="#FFA600"/>
</linearGradient>
<linearGradient id="paint1_linear_17_51" x1="56" y1="17" x2="56" y2="27" gradientUnits="userSpaceOnUse">
<stop stop-color="#FFA600"/>
<stop offset="1" stop-color="#FFF500"/>
</linearGradient>
<linearGradient id="paint2_linear_17_51" x1="46" y1="30" x2="46" y2="40" gradientUnits="userSpaceOnUse">
<stop stop-color="#FFA600"/>
<stop offset="1" stop-color="#FFF500"/>
</linearGradient>
<linearGradient id="paint3_linear_17_51" x1="56" y1="43" x2="56" y2="53" gradientUnits="userSpaceOnUse">
<stop stop-color="#FFA600"/>
<stop offset="1" stop-color="#FFF500"/>
</linearGradient>
<linearGradient id="paint4_linear_17_51" x1="14" y1="17" x2="14" y2="27" gradientUnits="userSpaceOnUse">
<stop stop-color="#FFA600"/>
<stop offset="1" stop-color="#FFF500"/>
</linearGradient>
<linearGradient id="paint5_linear_17_51" x1="34" y1="17" x2="34" y2="27" gradientUnits="userSpaceOnUse">
<stop stop-color="#FFA600"/>
<stop offset="1" stop-color="#FFF500"/>
</linearGradient>
<linearGradient id="paint6_linear_17_51" x1="24" y1="30" x2="24" y2="40" gradientUnits="userSpaceOnUse">
<stop stop-color="#FFA600"/>
<stop offset="1" stop-color="#FFF500"/>
</linearGradient>
<linearGradient id="paint7_linear_17_51" x1="24" y1="43" x2="24" y2="53" gradientUnits="userSpaceOnUse">
<stop stop-color="#FFA600"/>
<stop offset="1" stop-color="#FFF500"/>
</linearGradient>
<clipPath id="clip0_17_51">
<rect width="70" height="70" fill="white"/>
</clipPath>
</defs>
</svg>
